<svg width="250" height="247" viewBox="0 0 250 247" fill="none" xmlns="http://www.w3.org/2000/svg">
<path d="M2 80.0048C2 56.9725 14.6828 35.2047 33.4971 21.9839C53.8781 7.66211 96.7791 -6.69293 120.331 8.48511C143.41 23.3578 130.492 60.5868 121.436 79.4522C117.218 88.2399 109.308 95.4508 101.465 101.003C98.7063 102.955 89.652 107.599 85.8091 104.939C81.9978 102.3 79.8091 94.0313 79.8091 86.4388C79.8091 74.9388 82.3874 69.7286 88.8091 61.4388C94.8372 53.6571 109.071 52.0569 118.279 51.0338C137.548 48.8928 159.019 48.9655 177.563 55.0598C193.058 60.152 209.113 70.1043 215.454 85.8464C222.297 102.836 220.465 123.839 221.138 141.736C222.447 176.555 224.959 210.348 243.557 240.569" stroke="white" stroke-width="4" stroke-linecap="round"/>
<path d="M219.309 239.176C228.439 239.176 237.7 239.346 245.836 243.977C248.257 245.355 247.601 244.77 247.194 241.892C246.215 234.971 246.248 227.797 246.224 220.844C246.15 198.751 246.048 205.456 247.309 183.439" stroke="white" stroke-width="4" stroke-linecap="round"/>
</svg>
