<svg width="32" height="32" viewBox="0 0 32 32" fill="none" xmlns="http://www.w3.org/2000/svg">
<path d="M16.0001 2.6665C8.65341 2.6665 2.66675 8.65317 2.66675 15.9998C2.66675 23.3465 8.65341 29.3332 16.0001 29.3332C23.3467 29.3332 29.3334 23.3465 29.3334 15.9998C29.3334 8.65317 23.3467 2.6665 16.0001 2.6665ZM20.4801 19.0665C20.8667 19.4532 20.8667 20.0932 20.4801 20.4798C20.2801 20.6798 20.0267 20.7732 19.7734 20.7732C19.5201 20.7732 19.2667 20.6798 19.0667 20.4798L16.0001 17.4132L12.9334 20.4798C12.7334 20.6798 12.4801 20.7732 12.2267 20.7732C11.9734 20.7732 11.7201 20.6798 11.5201 20.4798C11.1334 20.0932 11.1334 19.4532 11.5201 19.0665L14.5867 15.9998L11.5201 12.9332C11.1334 12.5465 11.1334 11.9065 11.5201 11.5198C11.9067 11.1332 12.5467 11.1332 12.9334 11.5198L16.0001 14.5865L19.0667 11.5198C19.4534 11.1332 20.0934 11.1332 20.4801 11.5198C20.8667 11.9065 20.8667 12.5465 20.4801 12.9332L17.4134 15.9998L20.4801 19.0665Z" fill="white"/>
</svg>
