<svg width="165" height="24" viewBox="0 0 165 24" fill="none" xmlns="http://www.w3.org/2000/svg">
<path d="M3.18072 5.16867H0.39759H0V0H19.4819V5.16867H16.6988V2.78313H11.5301V21.0723H13.5181V23.8554H5.96386V21.0723H8.3494V2.78313H3.18072V5.16867Z" fill="white"/>
<path d="M21.8673 23.8554V20.6747H24.2529L33.795 0H36.5782L47.3131 23.8554H40.9516V21.0723H42.9396L41.3492 17.494H29.0239L26.2408 23.8554H21.8673Z" fill="white"/>
<path d="M39.7592 14.711H30.217L34.9881 3.97607L39.7592 14.711Z" fill="#18181B"/>
<path d="M66.3977 23.8554V20.6747H68.7832L78.3254 0H81.1085L91.8435 23.8554H85.482V21.0723H87.47L85.8796 17.494H73.5543L70.7712 23.8554H66.3977Z" fill="white"/>
<path d="M84.2891 14.711H74.7469L79.518 3.97607L84.2891 14.711Z" fill="#18181B"/>
<path d="M139.554 23.8554V20.6747H141.94L151.482 0H154.265L165 23.8554H158.639V21.0723H160.626L159.036 17.494H146.711L143.928 23.8554H139.554Z" fill="white"/>
<path d="M157.446 14.711H147.903L152.675 3.97607L157.446 14.711Z" fill="#18181B"/>
<path d="M44.53 5.16867V0H64.012V5.16867H61.2288V2.78313H56.0602V21.0723H58.0481V23.8554H50.4939V21.0723H52.8794V2.78313H47.3132V5.16867H44.53Z" fill="white"/>
<path d="M93.4338 23.3238V20.9382H95.8194V2.64918H93.4338V0H106.276C109.583 0.460497 111.156 1.32508 113.313 4.23942C114.425 7.03705 114.442 8.60383 113.711 11.396C111.831 14.5764 110.404 15.5619 106.554 16.3012L98.6025 16.2918V23.3238H93.4338Z" fill="white"/>
<path d="M99.3976 13.5179V3.18056C99.3976 3.18056 105.361 2.38538 107.747 3.18056C110.133 3.97574 111.394 5.39453 111.325 8.34924C111.103 11.0037 110.53 12.3251 107.747 13.1203C104.964 13.9156 99.3976 13.5179 99.3976 13.5179Z" fill="#18181B"/>
<path d="M118.084 2.78313V0H123.253V10.3373H127.229V7.55422C130.685 7.56554 131.884 6.58072 132.398 2.78313H130.012V0H135.181V3.57831C134.62 7.90387 133.365 9.23045 130.012 10.3373V13.1205C133.559 14.1327 134.831 15.8435 135.976 20.6747V23.8554H131.205V20.6747H133.193C132.112 16.7953 130.792 15.8739 127.229 16.3012V13.1205H123.253V23.8554H118.084V20.6747H120.072V2.78313H118.084Z" fill="white"/>
</svg>
