<svg width="211" height="214" viewBox="0 0 211 214" fill="none" xmlns="http://www.w3.org/2000/svg">
<path d="M106.86 17.6503C121.735 12.6153 138.566 16.0478 151.217 25.3086C164.922 35.3405 183.572 59.9093 178.918 78.438C174.357 96.594 147.49 96.3897 133.326 94.6655C126.729 93.8623 120.343 90.3299 115.042 86.4781C113.178 85.1235 108.2 80.2912 109.078 77.2277C109.949 74.1894 114.811 70.9682 119.714 69.3085C127.141 66.7946 131.07 67.3208 137.828 69.6559C144.171 71.8479 148.316 80.6908 150.99 86.4138C156.585 98.3902 161.231 112.273 161.349 125.581C161.448 136.702 158.53 149.247 149.749 156.783C140.273 164.916 126.308 168.324 114.897 172.671C92.6951 181.128 71.42 190.138 55.9678 208.756" stroke="url(#paint0_linear_224_132)" stroke-width="2.04548" stroke-linecap="round"/>
<path d="M51.5666 192.791C53.5623 198.687 55.4772 204.706 54.2648 210.973C53.9041 212.837 54.1381 212.286 55.9084 211.394C60.1642 209.249 64.8039 207.702 69.2893 206.167C83.5419 201.289 79.189 202.689 93.6841 198.69" stroke="url(#paint1_linear_224_132)" stroke-width="2.04548" stroke-linecap="round"/>
<defs>
<linearGradient id="paint0_linear_224_132" x1="80.2004" y1="26.6742" x2="131.972" y2="196.497" gradientUnits="userSpaceOnUse">
<stop stop-color="#FFE998"/>
<stop offset="1" stop-color="#FEC902"/>
</linearGradient>
<linearGradient id="paint1_linear_224_132" x1="67.7847" y1="187.302" x2="74.1776" y2="207.09" gradientUnits="userSpaceOnUse">
<stop stop-color="#FFE998"/>
<stop offset="1" stop-color="#FEC902"/>
</linearGradient>
</defs>
</svg>
