<svg width="121" height="113" viewBox="0 0 121 113" fill="none" xmlns="http://www.w3.org/2000/svg">
<path d="M97.4231 111.602C85.5587 108.235 73.6944 104.868 61.83 101.5C52.7539 98.9244 47.1353 97.2857 41.9257 91.1717C39.7141 88.5762 35.7072 80.6652 40.5916 79.8743C42.911 79.4987 50.2049 79.5193 51.425 82.1691C52.1822 83.8138 50.8384 86.7311 48.3063 86.57C41.5886 86.1427 34.647 81.0087 30.1746 77.5244C18.3667 68.3254 16.9132 59.9536 17.4144 49.5523C18.0875 35.5843 19.6108 21.8953 25.5004 9.29857" stroke="white" stroke-width="1.68241" stroke-linecap="round"/>
<path d="M29.1818 19.5643C27.7591 14.8648 23.4911 0.766544 24.9138 5.46597C25.7311 8.16582 22.774 10.3116 20.9956 12.1785C18.0906 15.2281 14.4691 17.2128 12.4586 20.7573" stroke="white" stroke-width="1.68241" stroke-linecap="round"/>
</svg>
