<svg width="234" height="249" viewBox="0 0 234 249" fill="none" xmlns="http://www.w3.org/2000/svg">
<path d="M2.00005 169.122C13.7463 151.113 25.4926 133.105 37.2389 115.097C46.2247 101.321 51.8607 92.816 64.7351 87.3078C70.2006 84.9694 85.4441 82.3936 84.2327 90.9341C83.6575 94.9897 79.8482 107.121 74.8056 107.781C71.6757 108.19 67.5146 104.443 69.0933 100.312C73.2815 89.3495 85.4211 80.4508 93.5363 74.8088C114.962 59.9131 129.651 61.8264 146.707 68.0443C169.611 76.3942 191.611 86.0151 209.533 102.339" stroke="white" stroke-width="2.93299" stroke-linecap="round"/>
<path d="M190.538 103.155C199.098 103.219 224.776 103.411 216.217 103.347C211.299 103.31 209.258 97.2765 207.07 93.3497C203.497 86.9353 202.067 79.8792 197.207 74.6979" stroke="white" stroke-width="2.93299" stroke-linecap="round"/>
</svg>
