<svg width="154" height="180" viewBox="0 0 154 180" fill="none" xmlns="http://www.w3.org/2000/svg">
<path d="M85.2248 178.578C95.1797 168.837 105.135 159.097 115.09 149.357C122.705 141.905 127.385 137.239 128.207 127.29C128.556 123.067 126.731 111.49 120.965 112.836C118.227 113.475 110.538 116.955 111.278 120.775C111.738 123.146 115.391 126.079 117.943 124.683C124.712 120.977 128.114 111.407 130.17 105.026C135.6 88.1769 130.724 77.2454 122.23 64.7567C110.822 47.9856 98.7306 31.9586 82.8627 19.3365" stroke="white" stroke-width="2.09401" stroke-linecap="round"/>
<path d="M86.8351 33.6406C84.7394 27.2169 78.452 7.94564 80.5478 14.3694C81.7518 18.0599 86.5189 19.2844 89.8272 20.7261C95.2313 23.0811 100.577 23.7939 105.415 27.1781" stroke="white" stroke-width="2.09401" stroke-linecap="round"/>
</svg>
