<svg width="37" height="29" viewBox="0 0 37 29" fill="none" xmlns="http://www.w3.org/2000/svg">
<path d="M0.547671 28.5653V21.2228C0.547671 18.9928 0.941991 16.6269 1.73063 14.125C2.54646 11.5959 3.71583 9.16204 5.23872 6.82331C6.7888 4.45739 8.65162 2.40421 10.8272 0.663764L16.0485 4.9061C14.3353 7.3536 12.8396 9.90988 11.5614 12.5749C10.3105 15.2128 9.68501 18.041 9.68501 21.0596V28.5653H0.547671ZM21.433 28.5653V21.2228C21.433 18.9928 21.8273 16.6269 22.616 14.125C23.4318 11.5959 24.6012 9.16204 26.1241 6.82331C27.6742 4.45739 29.537 2.40421 31.7125 0.663764L36.9339 4.9061C35.2206 7.3536 33.7249 9.90988 32.4468 12.5749C31.1958 15.2128 30.5704 18.041 30.5704 21.0596V28.5653H21.433Z" fill="url(#paint0_linear_234_2057)"/>
<defs>
<linearGradient id="paint0_linear_234_2057" x1="-5" y1="9" x2="42.3166" y2="9.91937" gradientUnits="userSpaceOnUse">
<stop stop-color="#FFE998"/>
<stop offset="1" stop-color="#FEC902"/>
</linearGradient>
</defs>
</svg>
